<?xml version="1.0" encoding="UTF-8"?>
<svg width="14px" height="3px" viewBox="0 0 14 3" version="1.1" xmlns="http://www.w3.org/2000/svg" xmlns:xlink="http://www.w3.org/1999/xlink">
    <title>icon-MoreOperationsLined</title>
    <g id="首页后台系统" stroke="none" stroke-width="1" fill="none" fill-rule="evenodd" fill-opacity="0.6">
        <g id="1.1.2首页-侧边收起" transform="translate(-386.000000, -297.000000)" fill="#000000">
            <g id="icon-MoreOperationsLined" transform="translate(386.000000, 297.000000)">
                <g id="icon_more-operations" transform="translate(0.000000, 0.125000)">
                    <path d="M0,1 C0,1.55228475 0.44771525,2 1,2 C1.55228475,2 2,1.55228475 2,1 C2,0.44771525 1.55228475,0 1,0 C0.44771525,0 0,0.44771525 0,1 Z" id="Shape"></path>
                    <path d="M6,1 C6,1.55228475 6.44771525,2 7,2 C7.55228475,2 8,1.55228475 8,1 C8,0.44771525 7.55228475,0 7,0 C6.44771525,0 6,0.44771525 6,1 Z" id="Shape"></path>
                    <path d="M12,1 C12,1.55228475 12.4477153,2 13,2 C13.5522847,2 14,1.55228475 14,1 C14,0.44771525 13.5522847,0 13,0 C12.4477153,0 12,0.44771525 12,1 Z" id="Shape"></path>
                </g>
            </g>
        </g>
    </g>
</svg>