<?xml version="1.0" encoding="UTF-8"?>
<svg width="14px" height="14px" viewBox="0 0 14 14" version="1.1" xmlns="http://www.w3.org/2000/svg" xmlns:xlink="http://www.w3.org/1999/xlink">
    <title>icon-AnnouncementLined-blue</title>
    <g id="首页后台系统" stroke="none" stroke-width="1" fill="none" fill-rule="evenodd">
        <g id="1.1.2首页-侧边收起" transform="translate(-1120.000000, -291.000000)" fill="#22AAE8">
            <g id="icon-AnnouncementLined-blue" transform="translate(1120.000000, 291.000000)">
                <path d="M6.82465316,0.165037829 L4.26868139,2.66414908 C3.92613123,2.87712102 3.55727223,2.98363819 3.16204264,2.98363819 L1.89720088,2.98363819 C0.843220977,2.98363819 0,3.83562996 0,4.87392797 L0,9.21125838 C0,10.3560736 0.922271013,11.2879376 2.05530095,11.2879376 L3.53090164,11.2879376 C3.92613123,11.2879376 4.29507258,11.3944548 4.63762273,11.6074059 L6.85102376,13.8402762 C7.00910325,13.9467934 7.19357392,14 7.40435343,14 C7.9840537,14 8.45833333,13.5207871 8.45833333,12.9350571 L8.45833333,1.07034018 C8.45833333,0.883950731 8.40565389,0.67091639 8.30023326,0.511171834 C7.9576831,0.00531407271 7.32530339,-0.154430483 6.82465316,0.165037829 Z M5.22274389,10.825855 C4.69508757,10.523031 4.11191018,10.330276 3.5009397,10.330276 L1.93033434,10.330276 C1.34715694,10.330276 0.875,9.86216581 0.875,9.28398672 L0.875,4.79852732 C0.875,4.33050319 1.26384279,3.94499311 1.73591294,3.94499311 L3.1121837,3.94499311 C3.75086047,3.94499311 4.33412465,3.77979294 4.88950897,3.44941411 L6.90697253,1.52137948 C7.06668189,1.36874962 7.31988285,1.37448869 7.4725127,1.53419805 C7.54364032,1.60862481 7.58333333,1.70760993 7.58333333,1.81055885 L7.58333333,12.1770399 C7.58333333,12.3979538 7.40424723,12.5770399 7.18333333,12.5770399 C7.07907317,12.5770399 6.97893322,12.536332 6.90424452,12.4635874 L5.22274389,10.825855 L5.22274389,10.825855 Z M13.4815415,6.47021678 L10.3703854,6.47021678 C10.0852403,6.47021678 9.8518256,6.70983362 9.8518256,7.00265704 C9.8518256,7.29556366 10.0852403,7.53518049 10.3703854,7.53518049 L13.4815415,7.53518049 C13.7666866,7.53518049 14,7.29556366 14,7.00265704 C14,6.70983362 13.7666866,6.47021678 13.4815415,6.47021678 Z M13.274073,11.2879376 L10.5777526,9.69047124 C10.3185537,9.53074749 10.0073814,9.63726466 9.87779207,9.87686069 C9.72223629,10.1431224 9.8259604,10.4625907 10.0592941,10.5957736 L12.7556145,12.1931568 C13.0148134,12.3528805 13.3259857,12.2464465 13.455575,12.0068505 C13.6111308,11.7671505 13.5333529,11.4476822 13.274073,11.2879376 Z M10.5518874,4.31484283 L13.2481268,2.71737647 C13.5074067,2.55763191 13.5851846,2.2381636 13.4296288,1.99854677 C13.274073,1.73230584 12.9629817,1.65243356 12.729648,1.81215732 L10.0333276,3.40962368 C9.77406796,3.56936823 9.69629007,3.88883655 9.8518256,4.12845338 C10.0073814,4.36804941 10.3185537,4.47456658 10.5518874,4.31484283 Z" id="Fill-1-Copy"></path>
            </g>
        </g>
    </g>
</svg>