<?xml version="1.0" encoding="UTF-8"?>
<svg width="14px" height="14px" viewBox="0 0 14 14" version="1.1" xmlns="http://www.w3.org/2000/svg" xmlns:xlink="http://www.w3.org/1999/xlink">
    <title>1.通用/2.Icon图标/Line/icon-ContainerLined-blue</title>
    <g id="首页后台系统" stroke="none" stroke-width="1" fill="none" fill-rule="evenodd">
        <g id="1.1.1首页" transform="translate(-553.000000, -607.000000)" fill="#22AAE8">
            <g id="icon-ContainerLined-blue" transform="translate(553.000000, 607.000000)">
                <path d="M12.83773,3.71036342 L9.0042089,0.262688309 C8.81996212,0.0993946526 8.58111286,0.0100830201 8.33413608,0.0121508937 L2.31160828,0 C2.31160828,0 0.875,0.0873121183 0.875,1.31270668 L0.875,12.6873617 C0.875,12.6873617 0.938091607,14 2.31193545,14 L11.6883917,14 C11.6883917,14 13.125,13.9388525 13.125,12.6873617 L13.125,4.33375041 C13.1225893,4.09462902 13.0181885,3.8677098 12.83773,3.70923548 L12.83773,3.71036342 Z M9.02277133,1.48580992 L11.5343649,3.76156465 L9.50046984,3.76156465 C9.50046984,3.76156465 9.0208772,3.74134734 9.0208772,3.32464517 C9.02277133,2.90681507 9.02277133,1.48622008 9.02277133,1.48622008 L9.02277133,1.48580992 Z M12.16764,12.6854818 C12.16764,13.1254091 11.6880645,13.1231533 11.6880645,13.1231533 L2.31160828,13.1231533 C1.86390583,13.1231533 1.83201564,12.6854818 1.83201564,12.6854818 L1.83201564,1.31045082 C1.83201564,0.902618289 2.31160828,0.872779386 2.31160828,0.872779386 L8.0654113,0.872779386 L8.0654113,3.32278238 C8.0654113,4.53488102 9.5019507,4.63509599 9.5019507,4.63509599 L12.1683804,4.63509599 L12.1683804,12.6851571 L12.1673128,12.6851571 L12.16764,12.6854818 Z M3.94751304,6.33059855 C3.94751304,6.5729841 4.16282348,6.76864596 4.42715734,6.76864596 L9.59665699,6.76864596 C9.86133524,6.76864596 10.0762324,6.57118966 10.0762324,6.33059855 C10.0762324,6.0904005 9.86133524,5.89292712 9.59665699,5.89292712 L4.42602086,5.89292712 C4.16134262,5.89292712 3.94642822,6.0904005 3.94642822,6.33059855 L3.94751304,6.33059855 Z M9.59665699,8.10119397 L4.42602086,8.10119397 C4.16134262,8.10119397 3.94642822,8.29866736 3.94642822,8.53925847 C3.94642822,8.77952488 4.16173866,8.97698117 4.42602086,8.97698117 L9.59552052,8.97698117 C9.86019876,8.97698117 10.075492,8.77952488 10.075492,8.53925847 C10.075492,8.29866736 9.86133524,8.10119397 9.59665699,8.10119397 Z M9.59665699,10.3095292 L4.42602086,10.3095292 C4.16134262,10.3095292 3.94642822,10.5070026 3.94642822,10.7475937 C3.94642822,10.9881848 4.16173866,11.185248 4.42602086,11.185248 L9.59552052,11.185248 C9.86019876,11.185248 10.075492,10.9881848 10.075492,10.7475937 C10.075492,10.5070026 9.86019876,10.3095292 9.59552052,10.3095292 L9.59665699,10.3095292 Z" id="icon_container"></path>
            </g>
        </g>
    </g>
</svg>