<?xml version="1.0" encoding="UTF-8"?>
<svg width="14px" height="14px" viewBox="0 0 14 14" version="1.1" xmlns="http://www.w3.org/2000/svg" xmlns:xlink="http://www.w3.org/1999/xlink">
    <title>icon-FunctionLined-blue</title>
    <g id="首页后台系统" stroke="none" stroke-width="1" fill="none" fill-rule="evenodd">
        <g id="1.1.2首页-侧边收起" transform="translate(-112.000000, -291.000000)" fill="#22AAE8">
            <g id="icon-FunctionLined-blue" transform="translate(112.000000, 291.000000)">
                <path d="M5.25001221,0.0136585366 L0.874987793,0.0136585366 C0.391735584,0.0136585366 0,0.405394121 0,0.888646329 L0,5.26367074 C0,5.74694004 0.391735584,6.13865854 0.874987793,6.13865854 L5.25001221,6.13865854 C5.73328151,6.13865854 6.125,5.74694004 6.125,5.26367074 L6.125,0.888646329 C6.125,0.405394121 5.73328151,0.0136585366 5.25001221,0.0136585366 Z M5.25,4.81255127 C5.25,5.0541333 5.0541333,5.25 4.81255127,5.25 L1.31253418,5.25 C1.0708667,5.25 0.875,5.0541333 0.875,4.81255127 L0.875,1.31253418 C0.875,1.0708667 1.0708667,0.875 1.31253418,0.875 L4.81255127,0.875 C5.0541333,0.875 5.25,1.0708667 5.25,1.31253418 L5.25,4.81255127 Z M13.1250122,0 L8.74998779,0 C8.26673558,0 7.875,0.391735584 7.875,0.874987793 L7.875,5.25001221 C7.875,5.73328151 8.26673558,6.125 8.74998779,6.125 L13.1250122,6.125 C13.6082644,6.125 14,5.73328151 14,5.25001221 L14,0.874987793 C14,0.391735584 13.6082644,0 13.1250122,0 Z M13.125,4.81255127 C13.125,5.0541333 12.9291333,5.25 12.6874658,5.25 L9.18753418,5.25 C8.9458667,5.25 8.75,5.0541333 8.75,4.81255127 L8.75,1.31253418 C8.75,1.0708667 8.9458667,0.875 9.18753418,0.875 L12.6874658,0.875 C12.9291333,0.875 13.125,1.0708667 13.125,1.31253418 L13.125,4.81255127 Z M5.25001221,7.87498293 L0.874987793,7.87498293 C0.391735584,7.87498293 0,8.26671851 0,8.74997072 L0,13.1249951 C0,13.6082473 0.391735584,13.9999829 0.874987793,13.9999829 L5.25001221,13.9999829 C5.73328151,13.9999829 6.125,13.6082473 6.125,13.1249951 L6.125,8.74997072 C6.125,8.26671851 5.73328151,7.87498293 5.25001221,7.87498293 Z M5.25,12.6874658 C5.25,12.9291333 5.0541333,13.125 4.81255127,13.125 L1.31253418,13.125 C1.0708667,13.125 0.875,12.9291333 0.875,12.6874658 L0.875,9.18753418 C0.875,8.9458667 1.0708667,8.75 1.31253418,8.75 L4.81255127,8.75 C5.0541333,8.75 5.25,8.9458667 5.25,9.18753418 L5.25,12.6874658 Z M13.1250122,7.875 L8.74998779,7.875 C8.26673558,7.875 7.875,8.26673558 7.875,8.74998779 L7.875,13.1250122 C7.875,13.6082644 8.26673558,14 8.74998779,14 L13.1250122,14 C13.6082644,14 14,13.6082644 14,13.1250122 L14,8.74998779 C14,8.26673558 13.6082644,7.875 13.1250122,7.875 Z M13.125,12.6836244 C13.125,12.9250561 12.9291333,13.1207317 12.6874658,13.1207317 L9.18753418,13.1207317 C8.9458667,13.1207317 8.75,12.9250561 8.75,12.6836244 L8.75,9.18710732 C8.75,8.94567561 8.9458667,8.75 9.18753418,8.75 L12.6874658,8.75 C12.9291333,8.75 13.125,8.94567561 13.125,9.18710732 L13.125,12.6836244 Z" id="Fill-1"></path>
            </g>
        </g>
    </g>
</svg>