<?xml version="1.0" encoding="UTF-8"?>
<svg width="14px" height="14px" viewBox="0 0 14 14" version="1.1" xmlns="http://www.w3.org/2000/svg" xmlns:xlink="http://www.w3.org/1999/xlink">
    <title>icon-SettingLined</title>
    <g id="首页后台系统" stroke="none" stroke-width="1" fill="none" fill-rule="evenodd">
        <g id="1.1.2首页-侧边收起" transform="translate(-356.000000, -291.000000)" fill="#666666">
            <g id="icon-SettingLined" transform="translate(356.000000, 291.000000)">
                <path d="M13.8632872,5.56184366 C13.7421923,4.88645518 13.295448,4.43362269 12.7048724,4.43362269 L12.6821174,4.43362269 C12.0840369,4.43362269 11.5994539,3.91714458 11.5994539,3.28943697 C11.5994539,3.14645255 11.6676079,2.93982251 11.6978678,2.86835939 C11.9552892,2.26443402 11.7584429,1.53350838 11.228461,1.14410813 L9.56270818,0.166844253 L9.49455417,0.135108734 C9.32804174,0.055614751 9.14629772,0.0238598339 8.96455369,0.0238598339 C8.57845854,0.0238598339 8.19230794,0.182770207 7.93488653,0.46086336 C7.68497001,0.723030559 7.23829968,1.04083191 7.03389311,1.04083191 C6.82946805,1.04083191 6.38272378,0.723030559 6.1328812,0.452890684 C5.87540433,0.166844253 5.48930918,0 5.1031401,0 C4.92139607,0 4.73972598,0.0317549171 4.57313962,0.111229502 L2.84683015,1.10439994 L2.7787316,1.15206141 C2.26383332,1.5255551 2.06698709,2.26443402 2.3244085,2.86835939 C2.3547423,2.94777578 2.42282237,3.15432823 2.42282237,3.29739024 C2.42282237,3.92511726 1.93831335,4.44151777 1.29474134,4.44151777 L1.26440754,4.44151777 C0.719249398,4.44151777 0.265000241,4.89440846 0.143831395,5.57775022 C0.113590017,5.7684737 0,6.44384279 0,7.00790478 C0,7.57204437 0.105992702,8.24743285 0.143831395,8.44610961 C0.265000241,9.1214787 0.719249398,9.57431119 1.26440754,9.57431119 L1.33258003,9.57431119 C1.93073452,9.57431119 2.41531748,10.0907893 2.41531748,10.7185163 C2.41531748,10.8535475 2.3547423,11.0601775 2.31682967,11.1395939 C2.06698709,11.7434999 2.25630995,12.4744255 2.7787316,12.8637482 L4.41415056,13.8331363 L4.48230457,13.8649689 C4.64889094,13.9443659 4.83056103,13.9761984 5.01230505,13.9761984 C5.3984002,13.9761984 5.79972695,13.8093541 6.05714836,13.515335 C6.29946757,13.2372418 6.76889287,12.8955807 6.97329944,12.8955807 C7.18530333,12.8955807 7.63955249,13.2372418 7.88946901,13.5232883 C8.14687194,13.8251831 8.52546219,14 8.926715,14 C9.11603785,14 9.29770794,13.9602918 9.46429431,13.8887511 L11.1602885,12.9035339 L11.228461,12.8558725 C11.7432853,12.4823788 11.9401315,11.7434999 11.6827101,11.1475472 C11.6524502,11.0681308 11.5842962,10.8615007 11.5842962,10.7185163 C11.5842962,10.0907893 12.0688607,9.57431119 12.7124512,9.57431119 C13.2651882,9.5664355 13.7270162,9.12937378 13.8556899,8.43815634 C13.8860237,8.24743285 13.9996137,7.57204437 13.9996137,7.00790478 C14.0071925,6.44384279 13.9011814,5.7684737 13.8632872,5.56184366 Z M12.8790191,8.24743285 C12.8562826,8.38254158 12.7881101,8.525526 12.7048724,8.525526 C11.5237026,8.525526 10.5848705,9.48694152 10.5848705,10.7185163 C10.5848705,11.0839597 10.721123,11.4495001 10.7590356,11.5527764 C10.8271342,11.7116867 10.7741194,11.9103635 10.6530429,11.9977332 L9.0327077,12.9352889 C9.00246632,12.9432421 8.96455369,12.9511954 8.926715,12.9511954 C8.81312498,12.9511954 8.69955345,12.9035339 8.6314549,12.8240594 C8.54054591,12.7207637 7.76072133,11.8467955 6.96572061,11.8467955 C6.16314106,11.8467955 5.32272282,12.7923044 5.31514399,12.8002577 C5.24698998,12.8717208 5.12589507,12.9273356 5.01230505,12.9273356 C4.96688753,12.9273356 4.9289749,12.9193823 4.89115469,12.9035339 L4.87597855,12.8955807 L3.33141311,11.9818266 C3.22540192,11.878531 3.1799844,11.6957608 3.23298075,11.5687023 C3.27081945,11.4812551 3.41472478,11.0998857 3.41472478,10.7185163 C3.41472478,9.51082075 2.47583721,8.525526 1.3250012,8.525526 L1.25682871,8.525526 C1.23416616,8.51757273 1.15083601,8.43815634 1.12057614,8.25538613 C1.09024234,8.08852248 0.991828468,7.47672142 0.991828468,7.00790478 C0.991828468,6.63448868 1.06000096,6.12598325 1.12057614,5.7684737 C1.15083601,5.5857035 1.22656885,5.50620951 1.24932382,5.49038055 L1.27958368,5.49038055 C2.47583721,5.49038055 3.40714595,4.52894564 3.40714595,3.29739024 C3.40714595,2.91602087 3.26331456,2.53465149 3.23298075,2.46311078 C3.16482674,2.31217309 3.2178231,2.1214496 3.33141311,2.02612666 L3.34657077,2.01817338 L4.98956857,1.07266442 C5.01988388,1.06471114 5.05772258,1.05673846 5.1031401,1.05673846 C5.21673011,1.05673846 5.34540385,1.10439994 5.40597903,1.17594064 C5.43631283,1.21564884 6.24647121,2.08969469 7.03389311,2.08969469 C7.80613886,2.08969469 8.61629724,1.22360211 8.6465571,1.1918472 C8.71471111,1.12032589 8.83587996,1.07266442 8.9570488,1.07266442 C9.00246632,1.07266442 9.04788384,1.0806177 9.07812522,1.09644666 L9.09330137,1.10439994 L10.6681267,2.02612666 C10.7817167,2.12940288 10.8271342,2.31217309 10.7741194,2.44720423 C10.7362807,2.53465149 10.5924493,2.91602087 10.5924493,3.29739024 C10.5924493,4.5050858 11.5312814,5.49038055 12.6821174,5.49038055 C12.8260227,5.49038055 12.8714403,5.68102644 12.8866164,5.76052043 C12.9471176,6.11005729 13.0152901,6.62653541 13.0152901,7.00790478 C13.0076928,7.38139847 12.9396128,7.90577167 12.8790191,8.24743285 Z M7.00367307,4.375 C5.55156327,4.375 4.375,5.55157117 4.375,6.9963093 C4.375,8.4409747 5.55156327,9.625 7.00367307,9.625 C8.45585558,9.625 9.625,8.44842883 9.625,6.9963093 C9.63241886,5.55157117 8.45585558,4.375 7.00367307,4.375 Z M7.00367307,8.64203629 C6.10265631,8.64203629 5.36542938,7.90478623 5.36542938,7.00376343 C5.36542938,6.10268608 6.10265631,5.36543603 7.00367307,5.36543603 C7.90474436,5.36543603 8.64198948,6.10268608 8.64198948,7.00376343 C8.64198948,7.90478623 7.91221663,8.64203629 7.00367307,8.64203629 Z" id="icon_setting"></path>
            </g>
        </g>
    </g>
</svg>