<?xml version="1.0" encoding="UTF-8"?>
<svg width="14px" height="14px" viewBox="0 0 14 14" version="1.1" xmlns="http://www.w3.org/2000/svg" xmlns:xlink="http://www.w3.org/1999/xlink">
    <title>icon-refreshLined-default</title>
    <g id="首页后台系统" stroke="none" stroke-width="1" fill="none" fill-rule="evenodd">
        <g id="1.1.2首页-侧边收起" transform="translate(-1028.000000, -608.000000)" fill="#666666">
            <g id="icon-refreshLined-default" transform="translate(1028.000000, 608.000000)">
                <path d="M13.5253479,7.00139058 C13.2545019,6.98129298 13.018437,7.18411473 12.9976012,7.45496073 C12.8852801,8.96236319 12.2077242,10.371718 11.1005512,11.4008795 C9.98855892,12.4406025 8.52233605,13.018019 6.99996293,13.0157837 C5.81004112,13.0157837 4.66056061,12.6699408 3.67497813,12.0133848 C2.81197054,11.4414849 2.11126137,10.6564273 1.64079282,9.73413175 L3.00792219,9.73413175 C3.18375574,9.73421378 3.34621822,9.64041129 3.434176,9.48812065 C3.52205176,9.33591205 3.52205176,9.14830706 3.434176,8.99601642 C3.34621822,8.84372579 3.18375574,8.74992329 3.00792219,8.75000532 L0.49211212,8.75000532 C0.220302257,8.75000532 7.88921297e-06,8.97029969 7.88921297e-06,9.24210955 L7.88921297e-06,11.7578376 C7.88921297e-06,12.0296475 0.220302257,12.2499418 0.49211212,12.2499418 C0.763921982,12.2499418 0.98421635,12.0296475 0.98421635,11.7578376 L0.98421635,10.5818406 C1.5218273,11.4836283 2.25497975,12.253141 3.12967677,12.8337773 C4.27628619,13.5962353 5.62305136,14.0020634 6.99996293,14 C8.77796529,14 10.4719474,13.3328541 11.7711345,12.1212146 C13.060724,10.9242176 13.8496371,9.28376082 13.9796563,7.52915781 C13.9896641,7.39889251 13.9474386,7.2699192 13.8621263,7.17090773 C13.7768961,7.07189627 13.6556952,7.01084466 13.5253479,7.00139058 Z M13.5078958,1.74996825 C13.3774049,1.74996825 13.2521845,1.8018734 13.1598996,1.89415832 C13.0676147,1.98644324 13.0157915,2.1115816 13.0157915,2.24207248 L13.0157915,3.41806952 C11.7525545,1.29871548 9.46731316,0.000246093131 6.99996293,0 C5.22196057,0 3.5279785,0.667055938 2.22879134,1.8787775 C0.939365877,3.07600007 0.150042668,4.71623129 0.0189160448,6.47075227 C-0.00120206868,6.74192639 0.202111873,6.97809377 0.473203964,6.99860153 C0.744049962,7.01869913 0.980135305,6.81579535 1.00103271,6.54501087 C1.11327169,5.03760842 1.7908276,3.62819204 2.8980006,2.5991126 C4.01071069,1.55955369 5.47717965,0.982137177 6.99996293,0.984208461 C8.18996677,0.984208461 9.33936524,1.32996931 10.3249477,1.98660731 C11.1880374,2.5584252 11.8887465,3.34356483 12.359133,4.26577833 L10.9920857,4.26577833 C10.8162522,4.26577833 10.6537897,4.35958083 10.5658319,4.51178943 C10.4778741,4.66408006 10.4778741,4.85168506 10.5658319,5.00397569 C10.6537897,5.15626632 10.8162522,5.24998679 10.9920857,5.24998679 L13.5078958,5.24998679 C13.7796236,5.24998679 14,5.02969242 14,4.75788256 L14,2.24207248 C14,2.1115816 13.9480949,1.98644324 13.8558099,1.89415832 C13.763525,1.8018734 13.6383867,1.74996825 13.5078958,1.74996825 Z" id="shuaxin"></path>
            </g>
        </g>
    </g>
</svg>