<?xml version="1.0" encoding="UTF-8"?>
<svg width="50px" height="50px" viewBox="0 0 50 50" version="1.1" xmlns="http://www.w3.org/2000/svg" xmlns:xlink="http://www.w3.org/1999/xlink">
    <title>1.通用/2.Icon图标/Line/icon-goods</title>
    <g id="首页后台系统" stroke="none" stroke-width="1" fill="none" fill-rule="evenodd">
        <g id="1.1.1首页" transform="translate(-266.000000, -349.000000)">
            <g id="icon-goods" transform="translate(266.000000, 349.000000)">
                <circle id="椭圆形" fill="#23A3DE" cx="25" cy="25" r="25"></circle>
                <g id="编组-11" transform="translate(10.000000, 10.000000)">
                    <rect id="矩形备份" x="0" y="0" width="30" height="30"></rect>
                    <g id="编组-10" transform="translate(1.000000, 3.000000)" fill="#FFFFFF" fill-rule="nonzero">
                        <path d="M13.4435172,8.8817842e-15 L13.5944555,0.00730112314 C13.7450713,0.0223074625 13.8930921,0.0603427202 14.0338036,0.120448509 L14.0338036,0.120448509 L25.5431248,5.06102871 C26.0805553,5.28616043 26.4284571,5.81443299 26.4226879,6.39813312 C26.418072,6.98114894 26.0610832,7.5032629 25.5204073,7.71949881 L25.5204073,7.71949881 L14.010437,12.4411059 C13.6465804,12.5914262 13.2423144,12.5914262 12.8784578,12.4411059 L12.8784578,12.4411059 L1.36848755,7.71949881 C0.827162627,7.50326288 0.470173745,6.98046466 0.465573126,6.39608023 C0.460437677,5.81238011 0.809637696,5.28410754 1.34836636,5.05966013 L1.34836636,5.05966013 L12.8583366,0.120448509 C13.0433217,0.0410707791 13.2425864,6.58565113e-06 13.4444474,6.58565113e-06 L13.4435172,8.8817842e-15 Z M13.4431493,2.0966806 L3.48380887,6.37213006 L13.4444474,10.4593995 L23.4037878,6.37213006 L13.4431493,2.0966806 Z" id="形状结合"></path>
                        <path d="M0.718984197,11.8807527 C0.827098975,11.6444121 1.02973327,11.4587159 1.28221691,11.3652185 C1.53405314,11.2710718 1.81502211,11.2769154 2.06232656,11.3801521 L13.950421,16.3407079 C14.466394,16.5556221 14.701398,17.1289429 14.4754575,17.6211027 C14.249517,18.1126132 13.6480881,18.3366174 13.1314677,18.121054 L1.24402067,13.1604982 C0.999779101,13.0608734 0.805065418,12.8679262 0.702799351,12.6241868 C0.604534077,12.3849648 0.610401625,12.1154451 0.718984197,11.8807527 L0.718984197,11.8807527 Z" id="路径"></path>
                        <path d="M13.2908361,16.337049 L25.1463215,11.3877784 C25.4813287,11.2407556 25.8681627,11.2769714 26.1702719,11.4836417 C26.4685474,11.6896184 26.6260782,12.0342084 26.5834674,12.382037 C26.5347319,12.7378313 26.2955573,13.0382106 25.960446,13.1644894 L14.1049606,18.1137601 C13.7699533,18.2607829 13.3831194,18.224567 13.0810102,18.0178967 C12.7866088,17.8196069 12.6273778,17.4728553 12.6684602,17.1195014 C12.7117167,16.7703774 12.9493041,16.4717759 13.2901905,16.337049 L13.2908361,16.337049 Z" id="路径"></path>
                        <path d="M2.06186746,17.0289349 L13.9509921,21.989909 C14.2850763,22.1288682 14.5155686,22.4275657 14.5557104,22.7723663 C14.5939567,23.122353 14.4365984,23.4649582 14.146522,23.6632638 C13.8525797,23.8691053 13.4666995,23.9100138 13.1319678,23.7704052 L1.24284319,18.8094311 C0.915323382,18.6775754 0.684329184,18.3786153 0.638772316,18.0276231 C0.600526054,17.6776365 0.757884332,17.3350313 1.04796073,17.1367257 C1.34582759,16.9305621 1.72769932,16.8902089 2.06186746,17.0295842 L2.06186746,17.0289349 Z" id="路径"></path>
                        <path d="M25.9960271,18.8069868 L14.076226,23.7786458 C13.5614734,23.9803754 12.9714228,23.7539176 12.7481252,23.268465 C12.5248278,22.7823617 12.7507217,22.2155666 13.2563867,21.9930133 L25.1761879,17.0213542 C25.6909405,16.8196246 26.2809911,17.0460824 26.5042885,17.531535 C26.727586,18.0176383 26.5016921,18.5844334 25.9960271,18.8069868 L25.9960271,18.8069868 Z" id="路径"></path>
                    </g>
                </g>
            </g>
        </g>
    </g>
</svg>