<?xml version="1.0" encoding="UTF-8"?>
<svg width="12px" height="12px" viewBox="0 0 12 12" version="1.1" xmlns="http://www.w3.org/2000/svg" xmlns:xlink="http://www.w3.org/1999/xlink">
    <title>icon-upload-blue</title>
    <g id="B2C-PC模版" stroke="none" stroke-width="1" fill="none" fill-rule="evenodd">
        <g id="按钮图标" transform="translate(-291.000000, -374.000000)" fill="#0088D2">
            <g id="icon-upload-blue" transform="translate(291.000000, 374.000000)">
                <path d="M11.580342,6 C11.8118806,6 12,6.1909097 12,6.42634453 L12,6.42634453 L12,11.5737304 C12,11.8094499 11.8122417,12 11.580342,12 L11.580342,12 L0.419372108,12 C0.18811942,12 0,11.8094499 0,11.5737304 L0,11.5737304 L0,6.42634453 C0,6.1909097 0.187758346,6 0.419372108,6 C0.65092569,6 0.83904511,6.1909097 0.83904511,6.42634453 L0.83904511,6.42634453 L0.83904511,11.1477454 L11.1609699,11.1477454 L11.1609699,6.42634453 C11.1609699,6.1909097 11.3487283,6 11.580342,6 Z M6.03650262,0 C6.15182631,0 6.26227984,0.0435099498 6.34267702,0.12070075 L6.34267702,0.12070075 L8.87325742,2.52825621 C9.04224753,2.6902892 9.04224753,2.94853849 8.87325742,3.11063034 C8.79278143,3.18770342 8.68239095,3.23115452 8.56708302,3.23115452 C8.45183813,3.23115452 8.34144765,3.18770342 8.26097167,3.11063034 L8.26097167,3.11063034 L6.43306671,1.37140948 L6.43306671,7.08829611 C6.43306671,7.31601339 6.23900075,7.5 5.99981087,7.5 C5.76063675,7.5 5.56699634,7.31573382 5.56699634,7.08829611 L5.56699634,7.08829611 L5.56699634,1.44118432 L3.73871311,3.18040517 C3.65443871,3.26064181 3.54366996,3.30092935 3.43291698,3.30092935 C3.32216399,3.30092935 3.21139525,3.26064181 3.12674258,3.18040517 C2.95775247,3.01831332 2.95775247,2.76006404 3.12674258,2.59804576 L3.12674258,2.59804576 L5.73040703,0.12070075 C5.81080421,0.0435099498 5.92119469,0 6.03650262,0 Z" id="icon_upload"></path>
            </g>
        </g>
    </g>
</svg>