<?xml version="1.0" encoding="UTF-8"?>
<svg width="12px" height="12px" viewBox="0 0 12 12" version="1.1" xmlns="http://www.w3.org/2000/svg" xmlns:xlink="http://www.w3.org/1999/xlink">
    <title>icon-picture-blue</title>
    <g id="B2C-PC模版" stroke="none" stroke-width="1" fill="none" fill-rule="evenodd">
        <g id="按钮图标" transform="translate(-379.000000, -374.000000)" fill="#0088D2">
            <g id="icon-picture-blue" transform="translate(379.000000, 374.000000)">
                <path d="M10.7719869,10.4993528 L1.13800651,10.4993528 L3.85000694,5.26127479 L5.99897949,8.25146528 L8.09900769,6.54753528 L10.7719869,10.4993528 Z M0.750010071,1.49970842 L11.2499765,1.49970842 L11.2499765,9.86757958 L8.48999852,5.7896129 C8.42894229,5.70229703 8.33619644,5.64442891 8.23303061,5.62923992 C8.12990507,5.61400928 8.02520847,5.64280449 7.94296316,5.70897518 L6.14300613,7.16895109 L4.10197971,4.32758218 C4.02404472,4.22132865 3.89946155,4.1629746 3.77079631,4.17236012 C3.64218479,4.18174564 3.52678623,4.25762118 3.46401124,4.37410714 L0.750010071,9.61630867 L0.750010071,1.49970842 Z M0.750010071,0.75 C0.342986433,0.743743676 0.00765384908,1.07890114 0,1.49970842 L0,10.5003802 C0,10.9139678 0.336003975,11.25 0.750010071,11.25 L11.2499765,11.25 C11.663996,11.25 12,10.9139678 12,10.5003802 L12,1.49970842 C12,1.08612077 11.663996,0.75 11.2499765,0.75 L0.750010071,0.75 Z M8.9966443,2.47322148 C8.2866443,2.47322148 7.71114094,3.04877852 7.71114094,3.75872483 C7.71114094,4.46871141 8.2866443,5.04426846 8.9966443,5.04426846 C9.7066443,5.04426846 10.2821879,4.46871141 10.2821879,3.75872483 C10.2821879,3.04877852 9.7066443,2.47322148 8.9966443,2.47322148 M8.9966443,3.32987919 C9.23327517,3.33045638 9.42491275,3.52214765 9.42548993,3.75872483 C9.42491275,3.9953557 9.23327517,4.18704698 8.9966443,4.18757047 C8.76001342,4.18704698 8.56837584,3.9953557 8.56779866,3.75872483 C8.56837584,3.52214765 8.76001342,3.33045638 8.9966443,3.32987919" id="Fill-1"></path>
            </g>
        </g>
    </g>
</svg>