<?xml version="1.0" encoding="UTF-8"?>
<svg width="6px" height="12px" viewBox="0 0 6 12" version="1.1" xmlns="http://www.w3.org/2000/svg" xmlns:xlink="http://www.w3.org/1999/xlink">
    <title>icon-left-black</title>
    <g id="B2C-PC模版" stroke="none" stroke-width="1" fill="none" fill-rule="evenodd" fill-opacity="0.8">
        <g id="按钮图标" transform="translate(-52.000000, -1064.000000)" fill="#000000">
            <g id="icon-left-black" transform="translate(52.000000, 1064.000000)">
                <path d="M0.179729261,10.3225247 C-0.0397236856,10.5346866 -0.0397236856,10.878703 0.179729261,11.0908786 C0.399196313,11.3030405 0.755020972,11.3030405 0.974488024,11.0908786 L5.83536092,6.39191116 C5.94077112,6.29001671 6,6.15183465 6,6.00774784 C6,5.86364739 5.94077112,5.72546533 5.83536092,5.62357089 L0.974488024,0.923757983 C0.834364257,0.777912019 0.623064273,0.717719023 0.42354236,0.766825271 C0.224034551,0.815999703 0.0682678146,0.966591286 0.0174034794,1.1594707 C-0.0333903283,1.35236375 0.0288712289,1.55664356 0.179729261,1.69211189 L4.64263035,6.00667053 L0.179291991,10.3212974 L0.179291991,10.3225247 L0.179729261,10.3225247 Z" id="icon_left" transform="translate(3.000000, 6.000000) rotate(-180.000000) translate(-3.000000, -6.000000) "></path>
            </g>
        </g>
    </g>
</svg>