<svg t="1615516943053" class="icon" viewBox="0 0 1024 1024" version="1.1" xmlns="http://www.w3.org/2000/svg" p-id="6548" width="200" height="200"><path d="M1023.829333 133.12c0-105.984-59.733333-132.522667-133.12-132.522667h-756.053333C61.269333 0.597333 1.536 27.136 1.536 133.12v758.357333c0 105.984 59.733333 132.522667 133.12 132.522667h755.882667c73.386667 0 133.12-26.453333 133.12-132.522667v-48.128h-74.325334l-0.426666 59.136a46.250667 46.250667 0 0 1-45.994667 47.530667H123.562667a47.530667 47.530667 0 0 1-47.616-47.445333V122.026667c0-26.197333 21.333333-47.36 47.616-47.36h68.096v264.874666c0 73.045333 59.733333 132.522667 133.12 132.522667h383.317333c73.386667 0 133.12-59.477333 133.12-132.522667V74.666667h60.501333c26.197333 0 47.616 21.162667 47.616 47.36v721.322666h74.325334V133.12h0.170666zM773.973333 347.306667c0 28.16-22.954667 50.944-51.2 50.944H310.186667a51.114667 51.114667 0 0 1-51.2-50.944V74.666667H773.973333V347.306667z m-119.466666-15.104h-49.493334c-6.570667 0-11.946667-6.229333-11.946666-13.994667V199.082667c0-7.68 5.376-13.909333 11.946666-13.909334h49.493334c6.570667 0 11.946667 6.314667 11.946666 13.909334V318.293333c0 7.68-5.376 13.994667-11.946666 13.994667z" p-id="6549"></path></svg>